<mxfile host="app.diagrams.net" modified="2020-12-02T09:39:14.543Z" agent="5.0 (Windows NT 10.0; WOW64) AppleWebKit/537.36 (KHTML, like Gecko) Chrome/86.0.4240.111 Safari/537.36" etag="x0fWCAcYRnyFow3dO6jG" version="13.10.5" type="github">
  <diagram id="a2hCRXuyS1vEkQ6dQ32K" name="Page-1">
    <mxGraphModel dx="1182" dy="732" grid="1" gridSize="10" guides="1" tooltips="1" connect="1" arrows="1" fold="1" page="1" pageScale="1" pageWidth="827" pageHeight="1169" math="0" shadow="0">
      <root>
        <mxCell id="0" />
        <mxCell id="1" parent="0" />
        <mxCell id="HWXDB4fJYsGNEzTyiRk--1" value="" style="group" parent="1" vertex="1" connectable="0">
          <mxGeometry x="100" y="250" width="121" height="130" as="geometry" />
        </mxCell>
        <mxCell id="HWXDB4fJYsGNEzTyiRk--2" value="" style="group" parent="HWXDB4fJYsGNEzTyiRk--1" vertex="1" connectable="0">
          <mxGeometry x="27" y="25" width="94" height="105" as="geometry" />
        </mxCell>
        <mxCell id="HWXDB4fJYsGNEzTyiRk--3" value="" style="rounded=1;whiteSpace=wrap;html=1;fillColor=#dae8fc;strokeColor=#6c8ebf;" parent="HWXDB4fJYsGNEzTyiRk--2" vertex="1">
          <mxGeometry x="-26" y="-37" width="120" height="130" as="geometry" />
        </mxCell>
        <mxCell id="HWXDB4fJYsGNEzTyiRk--4" value="" style="aspect=fixed;perimeter=ellipsePerimeter;html=1;align=center;shadow=0;dashed=0;spacingTop=3;image;image=img/lib/active_directory/vista_client.svg;" parent="HWXDB4fJYsGNEzTyiRk--2" vertex="1">
          <mxGeometry width="38" height="50" as="geometry" />
        </mxCell>
        <mxCell id="HWXDB4fJYsGNEzTyiRk--5" value="" style="aspect=fixed;perimeter=ellipsePerimeter;html=1;align=center;shadow=0;dashed=0;spacingTop=3;image;image=img/lib/active_directory/vista_client.svg;" parent="HWXDB4fJYsGNEzTyiRk--2" vertex="1">
          <mxGeometry x="15" y="15" width="38" height="50" as="geometry" />
        </mxCell>
        <mxCell id="HWXDB4fJYsGNEzTyiRk--6" value="" style="aspect=fixed;perimeter=ellipsePerimeter;html=1;align=center;shadow=0;dashed=0;spacingTop=3;image;image=img/lib/active_directory/vista_client.svg;" parent="HWXDB4fJYsGNEzTyiRk--2" vertex="1">
          <mxGeometry x="30" y="30" width="38" height="50" as="geometry" />
        </mxCell>
        <mxCell id="HWXDB4fJYsGNEzTyiRk--7" value="" style="aspect=fixed;perimeter=ellipsePerimeter;html=1;align=center;shadow=0;dashed=0;spacingTop=3;image;image=img/lib/active_directory/users.svg;" parent="HWXDB4fJYsGNEzTyiRk--2" vertex="1">
          <mxGeometry x="-18" y="43" width="33" height="50" as="geometry" />
        </mxCell>
        <mxCell id="HWXDB4fJYsGNEzTyiRk--8" value="Dev Team Client Working Stations" style="text;html=1;strokeColor=none;fillColor=none;align=center;verticalAlign=middle;whiteSpace=wrap;rounded=0;" parent="HWXDB4fJYsGNEzTyiRk--1" vertex="1">
          <mxGeometry width="120" height="20" as="geometry" />
        </mxCell>
        <mxCell id="HWXDB4fJYsGNEzTyiRk--9" value="" style="aspect=fixed;perimeter=ellipsePerimeter;html=1;align=center;shadow=0;dashed=0;spacingTop=3;image;image=img/lib/active_directory/databases.svg;" parent="1" vertex="1">
          <mxGeometry x="400" y="120.6" width="80" height="78.4" as="geometry" />
        </mxCell>
        <mxCell id="HWXDB4fJYsGNEzTyiRk--10" value="Git Repository on&amp;nbsp;" style="text;html=1;strokeColor=none;fillColor=none;align=center;verticalAlign=middle;whiteSpace=wrap;rounded=0;" parent="1" vertex="1">
          <mxGeometry x="355" y="70" width="170" height="20" as="geometry" />
        </mxCell>
        <mxCell id="HWXDB4fJYsGNEzTyiRk--11" value="&lt;div style=&quot;box-sizing: border-box ; font-family: &amp;#34;segoe ui&amp;#34; , , &amp;#34;apple color emoji&amp;#34; , &amp;#34;segoe ui emoji&amp;#34; , sans-serif ; font-size: 14px&quot;&gt;&lt;a href=&quot;http://mkapp004:4800/Bonobo.Git.Server/Repository/&quot; title=&quot;http://mkapp004:4800/bonobo.git.server/repository/&quot;&gt;http://tfsclalit:8080/tfs/devDept/BI/_git&lt;/a&gt;&lt;/div&gt;" style="text;html=1;strokeColor=none;fillColor=none;align=center;verticalAlign=middle;whiteSpace=wrap;rounded=0;" parent="1" vertex="1">
          <mxGeometry x="290" y="100" width="366" height="10" as="geometry" />
        </mxCell>
        <mxCell id="HWXDB4fJYsGNEzTyiRk--12" value="" style="endArrow=classic;html=1;exitX=1;exitY=0;exitDx=0;exitDy=0;" parent="1" source="HWXDB4fJYsGNEzTyiRk--8" target="HWXDB4fJYsGNEzTyiRk--9" edge="1">
          <mxGeometry width="50" height="50" relative="1" as="geometry">
            <mxPoint x="390" y="360" as="sourcePoint" />
            <mxPoint x="460" y="330" as="targetPoint" />
          </mxGeometry>
        </mxCell>
        <mxCell id="HWXDB4fJYsGNEzTyiRk--13" value="Current Version upload" style="text;html=1;strokeColor=none;fillColor=none;align=center;verticalAlign=middle;whiteSpace=wrap;rounded=0;rotation=-30;" parent="1" vertex="1">
          <mxGeometry x="260" y="179" width="110" height="20" as="geometry" />
        </mxCell>
        <mxCell id="HWXDB4fJYsGNEzTyiRk--14" style="edgeStyle=orthogonalEdgeStyle;rounded=0;orthogonalLoop=1;jettySize=auto;html=1;exitX=1;exitY=0.25;exitDx=0;exitDy=0;entryX=1;entryY=0.5;entryDx=0;entryDy=0;" parent="1" source="HWXDB4fJYsGNEzTyiRk--13" target="HWXDB4fJYsGNEzTyiRk--13" edge="1">
          <mxGeometry relative="1" as="geometry" />
        </mxCell>
        <mxCell id="HWXDB4fJYsGNEzTyiRk--15" value="" style="endArrow=classic;html=1;exitX=0.25;exitY=1;exitDx=0;exitDy=0;entryX=1;entryY=1;entryDx=0;entryDy=0;" parent="1" source="HWXDB4fJYsGNEzTyiRk--9" target="HWXDB4fJYsGNEzTyiRk--8" edge="1">
          <mxGeometry width="50" height="50" relative="1" as="geometry">
            <mxPoint x="390" y="350" as="sourcePoint" />
            <mxPoint x="440" y="300" as="targetPoint" />
          </mxGeometry>
        </mxCell>
        <mxCell id="HWXDB4fJYsGNEzTyiRk--16" value="Current Version download" style="text;html=1;strokeColor=none;fillColor=none;align=center;verticalAlign=middle;whiteSpace=wrap;rounded=0;rotation=-30;" parent="1" vertex="1">
          <mxGeometry x="280" y="240" width="110" height="20" as="geometry" />
        </mxCell>
        <mxCell id="HWXDB4fJYsGNEzTyiRk--17" style="edgeStyle=orthogonalEdgeStyle;rounded=0;orthogonalLoop=1;jettySize=auto;html=1;" parent="1" source="HWXDB4fJYsGNEzTyiRk--18" target="HWXDB4fJYsGNEzTyiRk--35" edge="1">
          <mxGeometry relative="1" as="geometry" />
        </mxCell>
        <mxCell id="HWXDB4fJYsGNEzTyiRk--18" value="" style="aspect=fixed;perimeter=ellipsePerimeter;html=1;align=center;shadow=0;dashed=0;spacingTop=3;image;image=img/lib/active_directory/generic_server.svg;" parent="1" vertex="1">
          <mxGeometry x="410" y="390" width="60" height="107.14" as="geometry" />
        </mxCell>
        <mxCell id="HWXDB4fJYsGNEzTyiRk--19" value="APP Server - IIS&lt;br&gt;SWDMKBI-APP01" style="text;html=1;strokeColor=none;fillColor=none;align=center;verticalAlign=middle;whiteSpace=wrap;rounded=0;" parent="1" vertex="1">
          <mxGeometry x="359" y="370" width="170" height="20" as="geometry" />
        </mxCell>
        <mxCell id="HWXDB4fJYsGNEzTyiRk--20" value="SITE:POEMS&lt;br&gt;app:POEMS:Client site&lt;br&gt;app: WEB_API" style="text;html=1;strokeColor=none;fillColor=none;align=center;verticalAlign=middle;whiteSpace=wrap;rounded=0;" parent="1" vertex="1">
          <mxGeometry x="351" y="506.14" width="170" height="20" as="geometry" />
        </mxCell>
        <mxCell id="HWXDB4fJYsGNEzTyiRk--21" value="" style="endArrow=classic;html=1;exitX=-0.033;exitY=0.821;exitDx=0;exitDy=0;exitPerimeter=0;" parent="1" source="HWXDB4fJYsGNEzTyiRk--18" target="HWXDB4fJYsGNEzTyiRk--3" edge="1">
          <mxGeometry width="50" height="50" relative="1" as="geometry">
            <mxPoint x="390" y="340" as="sourcePoint" />
            <mxPoint x="440" y="290" as="targetPoint" />
          </mxGeometry>
        </mxCell>
        <mxCell id="HWXDB4fJYsGNEzTyiRk--22" value="POEMS&amp;nbsp;&lt;br&gt;WEB_API" style="text;html=1;strokeColor=none;fillColor=none;align=center;verticalAlign=middle;whiteSpace=wrap;rounded=0;rotation=45;" parent="1" vertex="1">
          <mxGeometry x="265" y="380" width="110" height="20" as="geometry" />
        </mxCell>
        <mxCell id="HWXDB4fJYsGNEzTyiRk--23" value="" style="group" parent="1" vertex="1" connectable="0">
          <mxGeometry x="100" y="510" width="121" height="130" as="geometry" />
        </mxCell>
        <mxCell id="HWXDB4fJYsGNEzTyiRk--24" value="" style="group" parent="HWXDB4fJYsGNEzTyiRk--23" vertex="1" connectable="0">
          <mxGeometry x="27" y="25" width="94" height="105" as="geometry" />
        </mxCell>
        <mxCell id="HWXDB4fJYsGNEzTyiRk--25" value="" style="rounded=1;whiteSpace=wrap;html=1;fillColor=#dae8fc;strokeColor=#6c8ebf;" parent="HWXDB4fJYsGNEzTyiRk--24" vertex="1">
          <mxGeometry x="-26" y="-37" width="120" height="130" as="geometry" />
        </mxCell>
        <mxCell id="HWXDB4fJYsGNEzTyiRk--26" value="" style="aspect=fixed;perimeter=ellipsePerimeter;html=1;align=center;shadow=0;dashed=0;spacingTop=3;image;image=img/lib/active_directory/vista_client.svg;" parent="HWXDB4fJYsGNEzTyiRk--24" vertex="1">
          <mxGeometry width="38" height="50" as="geometry" />
        </mxCell>
        <mxCell id="HWXDB4fJYsGNEzTyiRk--27" value="" style="aspect=fixed;perimeter=ellipsePerimeter;html=1;align=center;shadow=0;dashed=0;spacingTop=3;image;image=img/lib/active_directory/vista_client.svg;" parent="HWXDB4fJYsGNEzTyiRk--24" vertex="1">
          <mxGeometry x="15" y="15" width="38" height="50" as="geometry" />
        </mxCell>
        <mxCell id="HWXDB4fJYsGNEzTyiRk--28" value="" style="aspect=fixed;perimeter=ellipsePerimeter;html=1;align=center;shadow=0;dashed=0;spacingTop=3;image;image=img/lib/active_directory/vista_client.svg;" parent="HWXDB4fJYsGNEzTyiRk--24" vertex="1">
          <mxGeometry x="30" y="30" width="38" height="50" as="geometry" />
        </mxCell>
        <mxCell id="HWXDB4fJYsGNEzTyiRk--29" value="" style="aspect=fixed;perimeter=ellipsePerimeter;html=1;align=center;shadow=0;dashed=0;spacingTop=3;image;image=img/lib/active_directory/users.svg;" parent="HWXDB4fJYsGNEzTyiRk--24" vertex="1">
          <mxGeometry x="-18" y="43" width="33" height="50" as="geometry" />
        </mxCell>
        <mxCell id="HWXDB4fJYsGNEzTyiRk--30" value="DEV Users for testing" style="text;html=1;strokeColor=none;fillColor=none;align=center;verticalAlign=middle;whiteSpace=wrap;rounded=0;" parent="HWXDB4fJYsGNEzTyiRk--23" vertex="1">
          <mxGeometry width="120" height="20" as="geometry" />
        </mxCell>
        <mxCell id="HWXDB4fJYsGNEzTyiRk--31" value="" style="endArrow=classic;html=1;exitX=1;exitY=1;exitDx=0;exitDy=0;" parent="1" source="HWXDB4fJYsGNEzTyiRk--30" edge="1">
          <mxGeometry width="50" height="50" relative="1" as="geometry">
            <mxPoint x="390" y="340" as="sourcePoint" />
            <mxPoint x="410" y="480" as="targetPoint" />
          </mxGeometry>
        </mxCell>
        <mxCell id="HWXDB4fJYsGNEzTyiRk--32" value="" style="endArrow=classic;html=1;entryX=1.017;entryY=0.685;entryDx=0;entryDy=0;entryPerimeter=0;" parent="1" target="HWXDB4fJYsGNEzTyiRk--25" edge="1">
          <mxGeometry width="50" height="50" relative="1" as="geometry">
            <mxPoint x="420" y="520" as="sourcePoint" />
            <mxPoint x="440" y="290" as="targetPoint" />
          </mxGeometry>
        </mxCell>
        <mxCell id="HWXDB4fJYsGNEzTyiRk--33" value="" style="endArrow=classic;html=1;" parent="1" source="HWXDB4fJYsGNEzTyiRk--9" edge="1">
          <mxGeometry width="50" height="50" relative="1" as="geometry">
            <mxPoint x="390" y="340" as="sourcePoint" />
            <mxPoint x="440" y="360" as="targetPoint" />
          </mxGeometry>
        </mxCell>
        <mxCell id="HWXDB4fJYsGNEzTyiRk--34" value="Git Clone for POEMS Repository on DEV Server" style="text;html=1;strokeColor=none;fillColor=none;align=center;verticalAlign=middle;whiteSpace=wrap;rounded=0;" parent="1" vertex="1">
          <mxGeometry x="357" y="250" width="170" height="20" as="geometry" />
        </mxCell>
        <mxCell id="HWXDB4fJYsGNEzTyiRk--35" value="" style="aspect=fixed;perimeter=ellipsePerimeter;html=1;align=center;shadow=0;dashed=0;spacingTop=3;image;image=img/lib/active_directory/databases.svg;" parent="1" vertex="1">
          <mxGeometry x="610" y="407.14" width="91.84" height="90" as="geometry" />
        </mxCell>
        <mxCell id="HWXDB4fJYsGNEzTyiRk--36" value="Application &amp;amp; logging Data Server&lt;br&gt;SQLBIAPPDEV\INSTANCE01" style="text;html=1;strokeColor=none;fillColor=none;align=center;verticalAlign=middle;whiteSpace=wrap;rounded=0;" parent="1" vertex="1">
          <mxGeometry x="564" y="380" width="170" height="20" as="geometry" />
        </mxCell>
        <mxCell id="HWXDB4fJYsGNEzTyiRk--37" value="DB:&lt;br&gt;BI_POEMS&lt;br&gt;BI_POEMS_DEV&lt;br&gt;BI_PRO" style="text;html=1;strokeColor=none;fillColor=none;align=center;verticalAlign=middle;whiteSpace=wrap;rounded=0;" parent="1" vertex="1">
          <mxGeometry x="570.92" y="506.14" width="170" height="20" as="geometry" />
        </mxCell>
        <mxCell id="YZbh1hLzGi5XlKFWTp-T-1" value="POEMS: Development Layer" style="text;html=1;strokeColor=none;fillColor=none;align=center;verticalAlign=middle;whiteSpace=wrap;rounded=0;fontSize=33;" parent="1" vertex="1">
          <mxGeometry x="210" y="20" width="460" height="20" as="geometry" />
        </mxCell>
      </root>
    </mxGraphModel>
  </diagram>
</mxfile>
